<?xml version="1.0" encoding="utf-8"?>
<svg version="1.1" xmlns:xlink="http://www.w3.org/1999/xlink" width="16px" height="16px" xmlns="http://www.w3.org/2000/svg">
  <g transform="matrix(1 0 0 1 -383 -572 )">
    <path d="M 6.83116883116883 1.97402597402597  L 7.61038961038961 1.19480519480519  C 7.9025974025974 0.902597402597403  8.48701298701299 0.902597402597403  8.77922077922078 1.19480519480519  L 15.4025974025974 7.81818181818182  C 15.6948051948052 8.11038961038961  15.6948051948052 8.69480519480519  15.4025974025974 8.98701298701299  L 8.77922077922078 15.6103896103896  C 8.48701298701298 15.9025974025974  7.9025974025974 15.9025974025974  7.61038961038961 15.6103896103896  L 6.83116883116883 14.8311688311688  C 6.53896103896104 14.538961038961  6.53896103896104 13.9545454545455  6.83116883116883 13.6623376623377  L 10.9220779220779 9.76623376623377  L 1.08441558441558 9.76623376623377  C 0.694805194805194 9.86363636363636  0.305194805194804 9.47402597402597  0.305194805194804 8.98701298701299  L 0.305194805194804 7.91558441558441  C 0.305194805194804 7.42857142857143  0.694805194805194 7.13636363636364  1.08441558441558 7.13636363636364  L 10.9220779220779 7.13636363636364  L 6.83116883116883 3.24025974025974  C 6.53896103896104 2.85064935064935  6.53896103896104 2.36363636363636  6.83116883116883 1.97402597402597  Z " fill-rule="nonzero" fill="#ffffff" stroke="none" transform="matrix(1 0 0 1 383 572 )" />
  </g>
</svg>